<svg version="1.1" id="Layer_1" xmlns="http://www.w3.org/2000/svg" xmlns:xlink="http://www.w3.org/1999/xlink" x="0px" y="0px"
	 width="100%" viewBox="0 0 774 218" enable-background="new 0 0 774 218" xml:space="preserve">
<path fill="#202020" opacity="1.000000" stroke="none" 
	d="
M540.000000,219.000000 
	C360.000031,219.000000 180.500046,219.000000 1.000048,219.000000 
	C1.000032,146.333359 1.000032,73.666725 1.000016,1.000068 
	C258.999939,1.000045 516.999878,1.000045 774.999878,1.000023 
	C774.999878,73.666595 774.999878,146.333191 774.999939,218.999893 
	C696.833313,219.000000 618.666687,219.000000 540.000000,219.000000 
M139.234467,165.003448 
	C147.112473,164.677170 153.298737,160.989410 153.718674,154.652328 
	C154.427612,143.953964 153.913147,133.174530 153.913147,121.944756 
	C128.848221,121.944756 104.300369,121.944756 79.604179,121.944756 
	C79.604179,97.145363 79.662155,72.838753 79.494598,48.533688 
	C79.481133,46.579468 78.465271,43.857548 76.983818,42.811661 
	C65.986542,35.047729 54.790012,27.562325 43.546288,20.156094 
	C42.207752,19.274405 39.781837,18.631660 38.635311,19.270245 
	C37.504868,19.899872 36.859390,22.296665 36.855198,23.920343 
	C36.759811,60.883480 36.743210,97.847084 36.903912,134.809769 
	C36.911373,136.526047 38.274899,138.869797 39.728851,139.845993 
	C51.180161,147.534592 62.776318,155.010071 74.417091,162.410843 
	C75.993050,163.412781 78.055260,164.109589 79.907974,164.145737 
	C99.368370,164.525513 118.831970,164.741959 139.234467,165.003448 
M410.722778,100.414619 
	C404.003754,100.414619 397.284760,100.414619 390.506256,100.414619 
	C390.425964,100.605171 390.193756,100.899254 390.193390,101.193604 
	C390.160492,129.171707 390.135376,157.149857 390.167328,185.127914 
	C390.168518,186.175308 390.401733,187.752884 391.090942,188.186234 
	C397.336517,192.113190 403.707825,195.840103 411.077332,200.244125 
	C411.077332,186.683899 411.077332,174.409256 411.077332,161.605118 
	C424.056213,172.690475 440.255554,170.955063 449.445923,157.580902 
	C459.175629,143.421844 459.288513,128.363815 451.878815,113.129807 
	C450.729828,110.767487 449.103180,108.572014 447.388123,106.563530 
	C443.251587,101.719231 438.105927,98.625465 431.618225,97.883644 
	C423.525116,96.958244 416.649658,99.197212 410.853394,106.207390 
	C410.853394,103.910454 410.853394,102.587616 410.722778,100.414619 
M735.237915,164.580627 
	C725.756287,153.268341 716.274719,141.956070 706.767517,130.613266 
	C716.215637,120.378639 725.393127,110.437202 735.235840,99.775124 
	C726.520264,99.775124 718.882324,99.547028 711.273132,99.914040 
	C708.989258,100.024200 706.221863,101.253197 704.645386,102.898483 
	C698.732361,109.069328 693.220215,115.624344 686.876831,122.806442 
	C686.755981,120.139687 686.624329,118.556503 686.621948,116.973122 
	C686.604370,105.148621 686.637756,93.323959 686.579590,81.499702 
	C686.572571,80.067360 686.623474,77.905190 685.785095,77.322754 
	C679.492981,72.951492 672.984253,68.892006 666.239990,64.539200 
	C666.239990,99.010994 666.239990,132.595932 666.239990,166.278763 
	C673.051147,166.278763 679.609558,166.278763 686.775635,166.278763 
	C686.775635,157.795868 686.775635,149.635406 686.775635,140.256226 
	C693.799500,148.869583 699.893616,156.504776 706.217224,163.944931 
	C707.328857,165.252869 709.376038,166.431290 711.035217,166.493515 
	C718.352783,166.767990 725.687317,166.664062 733.013306,166.547134 
	C733.941589,166.532318 734.855835,165.632507 735.237915,164.580627 
M302.862579,111.723610 
	C293.018433,99.419731 280.261108,94.984665 265.144379,98.905838 
	C250.876740,102.606766 242.568558,112.196571 240.330048,126.920517 
	C237.833603,143.341019 243.884796,157.039658 257.048462,164.472137 
	C269.611298,171.565384 285.997681,170.049637 297.288757,160.749908 
	C310.186340,150.127014 312.824707,128.629944 302.862579,111.723610 
M315.106171,146.187164 
	C317.793732,150.509613 319.803375,155.504425 323.297211,159.027222 
	C333.404022,169.217773 349.219299,171.710556 362.129913,165.969009 
	C375.578125,159.988358 382.113647,148.603424 382.232544,132.777100 
	C382.458252,102.728233 352.029602,90.096176 330.458160,102.003525 
	C315.890961,110.044563 309.941071,126.754013 315.106171,146.187164 
M562.324951,149.258636 
	C558.905029,146.082489 557.720642,142.140839 558.200623,137.058624 
	C572.223022,137.058624 586.127197,137.058624 599.911621,137.058624 
	C599.911621,133.384079 600.181519,130.209641 599.865356,127.094673 
	C598.416199,112.816040 590.469727,102.282730 578.818848,98.906250 
	C565.724487,95.111420 552.368164,99.001717 544.552368,109.074890 
	C538.280273,117.158493 537.036133,126.659302 537.414185,136.494781 
	C538.631042,168.149933 570.365173,175.225143 588.104126,163.809433 
	C594.544189,159.664978 598.226013,153.794159 599.287231,145.781326 
	C593.202087,145.781326 587.715271,145.694305 582.235596,145.852844 
	C581.104126,145.885590 579.737366,146.574905 578.924561,147.400314 
	C573.690369,152.715866 570.159058,153.294098 562.324951,149.258636 
M154.095871,107.575226 
	C162.056061,102.246880 162.098587,98.917473 154.204269,93.667511 
	C132.447037,79.198303 110.677895,64.747002 88.901024,50.307377 
	C87.772018,49.558762 86.527382,48.984528 84.999908,48.143810 
	C84.999908,58.680622 84.885292,68.497307 85.128242,78.305130 
	C85.163132,79.713791 86.637993,81.482475 87.932335,82.396538 
	C93.912849,86.619972 100.103149,90.544754 106.142624,94.686867 
	C110.233215,97.492355 110.213837,99.385803 106.129456,102.122261 
	C100.183846,106.105705 94.199097,110.032715 88.164902,113.880058 
	C87.090874,114.564835 85.695511,114.745636 84.448532,115.159157 
	C84.997467,115.896530 85.546402,116.633904 86.095329,117.371269 
	C87.679977,117.469368 89.264412,117.648277 90.849304,117.652405 
	C100.841606,117.678406 110.884987,117.029999 120.813438,117.826576 
	C133.208176,118.821022 144.133652,116.355324 154.095871,107.575226 
M237.847351,164.996887 
	C237.847351,158.388733 237.847351,151.780579 237.847351,144.668976 
	C228.945801,144.668976 220.547043,144.668976 211.872299,144.668976 
	C211.872299,142.340225 211.872314,140.523804 211.872314,138.707382 
	C211.872299,120.235207 211.897583,101.762939 211.825821,83.291046 
	C211.819870,81.758606 211.678879,79.521065 210.716064,78.811646 
	C204.108170,73.942856 197.264328,69.394302 190.126419,64.488304 
	C190.126419,98.935555 190.126419,132.594421 190.126419,166.609756 
	C204.925735,166.609756 219.378464,166.627792 233.830978,166.578308 
	C235.099762,166.573959 236.367035,166.127121 237.847351,164.996887 
M529.665405,146.499207 
	C529.665405,126.702934 529.703491,106.906464 529.602600,87.110710 
	C529.593201,85.264801 529.316223,82.582031 528.125061,81.715797 
	C520.127075,75.899590 511.847931,70.469910 503.207123,64.607704 
	C503.207123,98.585419 503.207123,131.712067 503.207123,164.788055 
	C512.155762,164.788055 520.695435,164.788055 529.664978,164.788055 
	C529.664978,158.756561 529.664978,153.127487 529.665405,146.499207 
M610.742004,113.591316 
	C607.138611,129.130707 611.295532,136.141785 626.446045,140.185196 
	C628.367615,140.698029 630.460144,141.119385 632.034729,142.214111 
	C633.351318,143.129395 634.937317,145.099472 634.755005,146.364914 
	C634.524902,147.962357 632.856873,150.173676 631.384277,150.579910 
	C629.137939,151.199585 626.349792,151.015366 624.111145,150.244568 
	C620.250000,148.915100 616.634338,146.872375 612.517578,144.942276 
	C610.193420,150.214355 607.819885,155.598389 605.490173,160.882904 
	C614.583557,168.261200 627.677856,170.784607 638.241882,167.394165 
	C650.050110,163.604401 655.864502,155.647522 655.604797,143.633362 
	C655.362976,132.447662 650.406616,127.128906 637.122314,123.784470 
	C636.477905,123.622238 635.853210,123.381859 635.219238,123.178276 
	C632.466003,122.294182 628.858704,121.147301 630.329956,117.778587 
	C631.158997,115.880363 635.014160,114.437462 637.547791,114.370674 
	C640.670288,114.288361 643.836121,115.851532 647.228882,116.770111 
	C649.373962,111.977806 651.523376,107.175743 653.868286,101.936813 
	C644.097107,97.328018 634.338928,96.091507 624.291504,99.689743 
	C617.938110,101.965034 612.957092,105.942703 610.742004,113.591316 
M465.800598,140.467773 
	C465.807709,142.799332 465.721802,145.135544 465.838654,147.461594 
	C466.259583,155.839478 472.883179,163.727112 481.158295,164.828094 
	C486.031525,165.476471 491.061493,164.946518 496.315430,164.946518 
	C496.315430,144.319855 496.315430,123.944069 496.315430,103.136459 
	C493.000366,103.136459 490.027435,103.006279 487.069061,103.159004 
	C474.273926,103.819550 465.866364,112.680336 465.804443,125.488106 
	C465.781891,130.151291 465.800598,134.814682 465.800598,140.467773 
M38.284512,187.912170 
	C47.937195,181.788681 57.621593,175.714294 67.223869,169.512772 
	C70.234108,167.568634 68.519455,166.070480 66.446045,164.722778 
	C58.232182,159.383728 50.064976,153.972107 41.806355,148.703568 
	C40.515739,147.880219 38.840927,147.659134 37.343758,147.159576 
	C36.933094,148.686951 36.173214,150.213135 36.167938,151.741913 
	C36.131252,162.372467 36.209202,173.004211 36.372326,183.633698 
	C36.393452,185.010254 37.114117,186.376068 38.284512,187.912170 
z"/>
<path fill="#FDFDFD" opacity="1.000000" stroke="none" 
	d="
M138.764572,165.003510 
	C118.831970,164.741959 99.368370,164.525513 79.907974,164.145737 
	C78.055260,164.109589 75.993050,163.412781 74.417091,162.410843 
	C62.776318,155.010071 51.180161,147.534592 39.728851,139.845993 
	C38.274899,138.869797 36.911373,136.526047 36.903912,134.809769 
	C36.743210,97.847084 36.759811,60.883480 36.855198,23.920343 
	C36.859390,22.296665 37.504868,19.899872 38.635311,19.270245 
	C39.781837,18.631660 42.207752,19.274405 43.546288,20.156094 
	C54.790012,27.562325 65.986542,35.047729 76.983818,42.811661 
	C78.465271,43.857548 79.481133,46.579468 79.494598,48.533688 
	C79.662155,72.838753 79.604179,97.145363 79.604179,121.944756 
	C104.300369,121.944756 128.848221,121.944756 153.913147,121.944756 
	C153.913147,133.174530 154.427612,143.953964 153.718674,154.652328 
	C153.298737,160.989410 147.112473,164.677170 138.764572,165.003510 
z"/>
<path fill="#FCFCFC" opacity="1.000000" stroke="none" 
	d="
M410.788086,100.839699 
	C410.853394,102.587616 410.853394,103.910454 410.853394,106.207390 
	C416.649658,99.197212 423.525116,96.958244 431.618225,97.883644 
	C438.105927,98.625465 443.251587,101.719231 447.388123,106.563530 
	C449.103180,108.572014 450.729828,110.767487 451.878815,113.129807 
	C459.288513,128.363815 459.175629,143.421844 449.445923,157.580902 
	C440.255554,170.955063 424.056213,172.690475 411.077332,161.605118 
	C411.077332,174.409256 411.077332,186.683899 411.077332,200.244125 
	C403.707825,195.840103 397.336517,192.113190 391.090942,188.186234 
	C390.401733,187.752884 390.168518,186.175308 390.167328,185.127914 
	C390.135376,157.149857 390.160492,129.171707 390.193390,101.193604 
	C390.193756,100.899254 390.425964,100.605171 390.506256,100.414619 
	C397.284760,100.414619 404.003754,100.414619 410.788086,100.839699 
M415.774780,145.982071 
	C420.649414,148.980026 425.746948,149.217972 430.242279,145.752991 
	C435.311890,141.845261 436.475342,136.160339 435.319183,130.027267 
	C433.941254,122.717529 429.356018,118.327156 423.183258,118.233643 
	C417.066498,118.140991 412.198730,122.460869 410.555084,129.577744 
	C409.136871,135.718307 410.611359,141.078186 415.774780,145.982071 
z"/>
<path fill="#FBFBFB" opacity="1.000000" stroke="none" 
	d="
M735.507202,164.861664 
	C734.855835,165.632507 733.941589,166.532318 733.013306,166.547134 
	C725.687317,166.664062 718.352783,166.767990 711.035217,166.493515 
	C709.376038,166.431290 707.328857,165.252869 706.217224,163.944931 
	C699.893616,156.504776 693.799500,148.869583 686.775635,140.256226 
	C686.775635,149.635406 686.775635,157.795868 686.775635,166.278763 
	C679.609558,166.278763 673.051147,166.278763 666.239990,166.278763 
	C666.239990,132.595932 666.239990,99.010994 666.239990,64.539200 
	C672.984253,68.892006 679.492981,72.951492 685.785095,77.322754 
	C686.623474,77.905190 686.572571,80.067360 686.579590,81.499702 
	C686.637756,93.323959 686.604370,105.148621 686.621948,116.973122 
	C686.624329,118.556503 686.755981,120.139687 686.876831,122.806442 
	C693.220215,115.624344 698.732361,109.069328 704.645386,102.898483 
	C706.221863,101.253197 708.989258,100.024200 711.273132,99.914040 
	C718.882324,99.547028 726.520264,99.775124 735.235840,99.775124 
	C725.393127,110.437202 716.215637,120.378639 706.767517,130.613266 
	C716.274719,141.956070 725.756287,153.268341 735.507202,164.861664 
z"/>
<path fill="#FCFCFC" opacity="1.000000" stroke="none" 
	d="
M303.045654,112.037842 
	C312.824707,128.629944 310.186340,150.127014 297.288757,160.749908 
	C285.997681,170.049637 269.611298,171.565384 257.048462,164.472137 
	C243.884796,157.039658 237.833603,143.341019 240.330048,126.920517 
	C242.568558,112.196571 250.876740,102.606766 265.144379,98.905838 
	C280.261108,94.984665 293.018433,99.419731 303.045654,112.037842 
M270.429810,147.562714 
	C278.480743,148.893433 283.273041,146.641815 285.934082,140.278183 
	C288.828400,133.356705 286.850708,123.880981 281.194885,120.472092 
	C278.838440,119.051811 275.520874,118.408226 272.753174,118.658653 
	C267.011047,119.178230 262.953827,123.881935 261.941986,130.028351 
	C260.647552,137.891678 263.209167,143.563644 270.429810,147.562714 
z"/>
<path fill="#FCFCFC" opacity="1.000000" stroke="none" 
	d="
M315.016327,145.790131 
	C309.941071,126.754013 315.890961,110.044563 330.458160,102.003525 
	C352.029602,90.096176 382.458252,102.728233 382.232544,132.777100 
	C382.113647,148.603424 375.578125,159.988358 362.129913,165.969009 
	C349.219299,171.710556 333.404022,169.217773 323.297211,159.027222 
	C319.803375,155.504425 317.793732,150.509613 315.016327,145.790131 
M348.384003,118.233017 
	C346.914124,118.485886 345.393524,118.576904 343.983093,119.019310 
	C337.501831,121.052238 333.576721,129.325043 335.303833,137.137253 
	C336.997589,144.798691 342.303070,148.841202 349.565979,148.004242 
	C355.644684,147.303757 359.956451,142.148071 360.393158,135.057999 
	C360.965332,125.768417 357.301392,120.332657 348.384003,118.233017 
z"/>
<path fill="#FCFCFC" opacity="1.000000" stroke="none" 
	d="
M562.618408,149.511627 
	C570.159058,153.294098 573.690369,152.715866 578.924561,147.400314 
	C579.737366,146.574905 581.104126,145.885590 582.235596,145.852844 
	C587.715271,145.694305 593.202087,145.781326 599.287231,145.781326 
	C598.226013,153.794159 594.544189,159.664978 588.104126,163.809433 
	C570.365173,175.225143 538.631042,168.149933 537.414185,136.494781 
	C537.036133,126.659302 538.280273,117.158493 544.552368,109.074890 
	C552.368164,99.001717 565.724487,95.111420 578.818848,98.906250 
	C590.469727,102.282730 598.416199,112.816040 599.865356,127.094673 
	C600.181519,130.209641 599.911621,133.384079 599.911621,137.058624 
	C586.127197,137.058624 572.223022,137.058624 558.200623,137.058624 
	C557.720642,142.140839 558.905029,146.082489 562.618408,149.511627 
M560.254700,118.164703 
	C559.655701,119.627563 559.056763,121.090431 558.293152,122.955505 
	C566.221436,122.955505 573.452209,122.955505 580.960083,122.955505 
	C579.984863,118.122993 577.299377,115.107674 572.818176,113.790100 
	C568.018982,112.378990 564.047607,113.914764 560.254700,118.164703 
z"/>
<path fill="#2775E7" opacity="1.000000" stroke="none" 
	d="
M153.798431,107.779663 
	C144.133652,116.355324 133.208176,118.821022 120.813438,117.826576 
	C110.884987,117.029999 100.841606,117.678406 90.849304,117.652405 
	C89.264412,117.648277 87.679977,117.469368 86.095329,117.371269 
	C85.546402,116.633904 84.997467,115.896530 84.448532,115.159157 
	C85.695511,114.745636 87.090874,114.564835 88.164902,113.880058 
	C94.199097,110.032715 100.183846,106.105705 106.129456,102.122261 
	C110.213837,99.385803 110.233215,97.492355 106.142624,94.686867 
	C100.103149,90.544754 93.912849,86.619972 87.932335,82.396538 
	C86.637993,81.482475 85.163132,79.713791 85.128242,78.305130 
	C84.885292,68.497307 84.999908,58.680622 84.999908,48.143810 
	C86.527382,48.984528 87.772018,49.558762 88.901024,50.307377 
	C110.677895,64.747002 132.447037,79.198303 154.204269,93.667511 
	C162.098587,98.917473 162.056061,102.246880 153.798431,107.779663 
z"/>
<path fill="#FBFBFB" opacity="1.000000" stroke="none" 
	d="
M237.741180,165.441345 
	C236.367035,166.127121 235.099762,166.573959 233.830978,166.578308 
	C219.378464,166.627792 204.925735,166.609756 190.126419,166.609756 
	C190.126419,132.594421 190.126419,98.935555 190.126419,64.488304 
	C197.264328,69.394302 204.108170,73.942856 210.716064,78.811646 
	C211.678879,79.521065 211.819870,81.758606 211.825821,83.291046 
	C211.897583,101.762939 211.872299,120.235207 211.872314,138.707382 
	C211.872314,140.523804 211.872299,142.340225 211.872299,144.668976 
	C220.547043,144.668976 228.945801,144.668976 237.847351,144.668976 
	C237.847351,151.780579 237.847351,158.388733 237.741180,165.441345 
z"/>
<path fill="#2775E7" opacity="1.000000" stroke="none" 
	d="
M529.665161,146.998810 
	C529.664978,153.127487 529.664978,158.756561 529.664978,164.788055 
	C520.695435,164.788055 512.155762,164.788055 503.207123,164.788055 
	C503.207123,131.712067 503.207123,98.585419 503.207123,64.607704 
	C511.847931,70.469910 520.127075,75.899590 528.125061,81.715797 
	C529.316223,82.582031 529.593201,85.264801 529.602600,87.110710 
	C529.703491,106.906464 529.665405,126.702934 529.665161,146.998810 
z"/>
<path fill="#FCFCFC" opacity="1.000000" stroke="none" 
	d="
M610.849365,113.193893 
	C612.957092,105.942703 617.938110,101.965034 624.291504,99.689743 
	C634.338928,96.091507 644.097107,97.328018 653.868286,101.936813 
	C651.523376,107.175743 649.373962,111.977806 647.228882,116.770111 
	C643.836121,115.851532 640.670288,114.288361 637.547791,114.370674 
	C635.014160,114.437462 631.158997,115.880363 630.329956,117.778587 
	C628.858704,121.147301 632.466003,122.294182 635.219238,123.178276 
	C635.853210,123.381859 636.477905,123.622238 637.122314,123.784470 
	C650.406616,127.128906 655.362976,132.447662 655.604797,143.633362 
	C655.864502,155.647522 650.050110,163.604401 638.241882,167.394165 
	C627.677856,170.784607 614.583557,168.261200 605.490173,160.882904 
	C607.819885,155.598389 610.193420,150.214355 612.517578,144.942276 
	C616.634338,146.872375 620.250000,148.915100 624.111145,150.244568 
	C626.349792,151.015366 629.137939,151.199585 631.384277,150.579910 
	C632.856873,150.173676 634.524902,147.962357 634.755005,146.364914 
	C634.937317,145.099472 633.351318,143.129395 632.034729,142.214111 
	C630.460144,141.119385 628.367615,140.698029 626.446045,140.185196 
	C611.295532,136.141785 607.138611,129.130707 610.849365,113.193893 
z"/>
<path fill="#2774E6" opacity="1.000000" stroke="none" 
	d="
M465.800537,139.972870 
	C465.800598,134.814682 465.781891,130.151291 465.804443,125.488106 
	C465.866364,112.680336 474.273926,103.819550 487.069061,103.159004 
	C490.027435,103.006279 493.000366,103.136459 496.315430,103.136459 
	C496.315430,123.944069 496.315430,144.319855 496.315430,164.946518 
	C491.061493,164.946518 486.031525,165.476471 481.158295,164.828094 
	C472.883179,163.727112 466.259583,155.839478 465.838654,147.461594 
	C465.721802,145.135544 465.807709,142.799332 465.800537,139.972870 
z"/>
<path fill="#2773E3" opacity="1.000000" stroke="none" 
	d="
M37.897629,187.829514 
	C37.114117,186.376068 36.393452,185.010254 36.372326,183.633698 
	C36.209202,173.004211 36.131252,162.372467 36.167938,151.741913 
	C36.173214,150.213135 36.933094,148.686951 37.343765,147.159576 
	C38.840927,147.659134 40.515739,147.880219 41.806355,148.703568 
	C50.064976,153.972107 58.232182,159.383728 66.446045,164.722778 
	C68.519455,166.070480 70.234108,167.568634 67.223869,169.512772 
	C57.621593,175.714294 47.937195,181.788681 37.897629,187.829514 
z"/>
<path fill="#232323" opacity="1.000000" stroke="none" 
	d="
M415.468506,145.751755 
	C410.611359,141.078186 409.136871,135.718307 410.555084,129.577744 
	C412.198730,122.460869 417.066498,118.140991 423.183258,118.233643 
	C429.356018,118.327156 433.941254,122.717529 435.319183,130.027267 
	C436.475342,136.160339 435.311890,141.845261 430.242279,145.752991 
	C425.746948,149.217972 420.649414,148.980026 415.468506,145.751755 
z"/>
<path fill="#222222" opacity="1.000000" stroke="none" 
	d="
M270.067169,147.389526 
	C263.209167,143.563644 260.647552,137.891678 261.941986,130.028351 
	C262.953827,123.881935 267.011047,119.178230 272.753174,118.658653 
	C275.520874,118.408226 278.838440,119.051811 281.194885,120.472092 
	C286.850708,123.880981 288.828400,133.356705 285.934082,140.278183 
	C283.273041,146.641815 278.480743,148.893433 270.067169,147.389526 
z"/>
<path fill="#222222" opacity="1.000000" stroke="none" 
	d="
M348.765503,118.303238 
	C357.301392,120.332657 360.965332,125.768417 360.393158,135.057999 
	C359.956451,142.148071 355.644684,147.303757 349.565979,148.004242 
	C342.303070,148.841202 336.997589,144.798691 335.303833,137.137253 
	C333.576721,129.325043 337.501831,121.052238 343.983093,119.019310 
	C345.393524,118.576904 346.914124,118.485886 348.765503,118.303238 
z"/>
<path fill="#242424" opacity="1.000000" stroke="none" 
	d="
M560.525146,117.870926 
	C564.047607,113.914764 568.018982,112.378990 572.818176,113.790100 
	C577.299377,115.107674 579.984863,118.122993 580.960083,122.955505 
	C573.452209,122.955505 566.221436,122.955505 558.293152,122.955505 
	C559.056763,121.090431 559.655701,119.627563 560.525146,117.870926 
z"/>
</svg>