<svg version="1.1" id="Layer_1" xmlns="http://www.w3.org/2000/svg" xmlns:xlink="http://www.w3.org/1999/xlink" x="0px" y="0px"
	 width="100%" viewBox="0 0 775 218" enable-background="new 0 0 775 218" xml:space="preserve">
<path fill="#F9F8F5" opacity="1.000000" stroke="none" 
	d="
M541.000000,219.000000 
	C360.666687,219.000000 180.833374,219.000000 1.000048,219.000000 
	C1.000032,146.333359 1.000032,73.666725 1.000016,1.000045 
	C130.166626,1.000000 259.333252,1.000000 388.499878,1.000000 
	C517.666504,1.000000 646.833191,1.000000 775.999878,1.000000 
	C775.999878,73.666595 775.999878,146.333191 775.999939,218.999893 
	C697.833313,219.000000 619.666687,219.000000 541.000000,219.000000 
M36.858925,26.649982 
	C36.858929,62.283512 36.909878,97.917229 36.777069,133.550262 
	C36.764332,136.967636 37.819164,138.908646 40.697701,140.712189 
	C51.964466,147.771378 63.041183,155.133270 74.241951,162.299164 
	C75.722450,163.246338 77.501724,164.286835 79.158234,164.313477 
	C99.792038,164.645309 120.428551,164.900345 141.064774,164.933380 
	C147.280731,164.943329 153.480530,160.100830 153.791092,154.284576 
	C154.354691,143.729355 153.950912,133.122498 153.950912,122.043617 
	C128.854431,122.043617 104.314270,122.043617 79.406891,122.043617 
	C79.406891,119.739250 79.406891,117.934021 79.406891,116.128799 
	C79.406891,93.816162 79.317558,71.502808 79.496857,49.191616 
	C79.525948,45.571632 78.356987,43.544888 75.357857,41.603039 
	C65.171738,35.007824 55.259102,27.990921 45.096298,21.358351 
	C43.212307,20.128798 40.651749,19.935919 38.403454,19.264584 
	C37.888611,21.409405 37.373768,23.554224 36.858925,26.649982 
M411.081390,178.500397 
	C411.081390,172.312119 411.081390,166.123840 411.081390,159.108475 
	C423.207489,172.960587 442.806458,170.069351 451.797638,154.923660 
	C460.448883,140.350662 458.945618,120.351364 448.225159,107.269508 
	C438.761383,95.721153 419.416656,95.627365 412.841034,107.038818 
	C412.615601,107.430092 411.854309,107.512589 410.921997,107.925232 
	C410.921997,105.307526 410.921997,103.192886 410.921997,100.855728 
	C404.577057,100.855728 398.511871,100.855728 392.511322,100.855728 
	C392.310425,101.327316 392.072906,101.624779 392.072571,101.922508 
	C392.041138,129.561447 392.011475,157.200424 392.071808,184.839233 
	C392.074249,185.968033 392.609467,187.610550 393.447906,188.139343 
	C399.003296,191.642929 404.709503,194.907410 411.081390,198.672028 
	C411.081390,191.693222 411.081390,185.596481 411.081390,178.500397 
M730.510132,156.982330 
	C723.115723,148.249390 715.721375,139.516464 708.269043,130.715134 
	C717.499390,120.739731 726.417542,111.101700 736.111145,100.625618 
	C732.674561,100.625618 730.630554,100.921631 728.700378,100.578041 
	C715.170044,98.169518 705.062744,102.850792 697.787781,114.537102 
	C695.439148,118.309891 691.923645,121.356216 688.118530,125.667862 
	C688.118530,110.035187 688.155884,95.902390 688.064331,81.770424 
	C688.054504,80.255585 687.786926,78.039238 686.799866,77.350121 
	C681.162720,73.414543 675.271362,69.843056 669.344849,66.070511 
	C669.344849,99.708298 669.344849,132.768265 669.344849,165.676498 
	C675.767212,165.676498 681.854126,165.676498 688.437012,165.676498 
	C688.437012,156.563293 688.437012,147.754532 688.437012,137.938080 
	C695.655762,146.796326 702.138733,154.803955 708.699402,162.747482 
	C709.709900,163.970932 711.048279,165.781967 712.284058,165.822388 
	C720.630554,166.095444 728.990234,165.964828 738.068237,165.964828 
	C735.251648,162.603226 733.118469,160.057373 730.510132,156.982330 
M297.101715,106.351952 
	C289.322845,100.175880 280.577942,97.399506 270.632507,98.793304 
	C257.382080,100.650284 247.285492,107.189034 243.172806,120.132271 
	C238.716232,134.157745 239.531235,148.016724 251.015228,158.879974 
	C264.983032,172.092773 287.708344,171.126007 300.387207,157.345551 
	C312.700684,143.962204 311.348114,119.187660 297.101715,106.351952 
M340.223816,99.339363 
	C315.646149,106.831627 305.762268,137.492905 322.175751,156.289566 
	C331.817627,167.331390 344.475464,170.679382 358.432526,166.759903 
	C371.300629,163.146240 379.837311,154.522888 381.792511,140.976181 
	C383.878510,126.523155 381.323273,113.380051 368.183136,104.366257 
	C359.886139,98.674736 350.743469,97.505783 340.223816,99.339363 
M599.969238,136.777924 
	C600.576172,135.479187 601.632568,134.200134 601.690491,132.877350 
	C601.791199,130.578079 601.405396,128.228516 600.996094,125.940735 
	C598.780457,113.558220 593.482605,103.278114 580.354553,99.817970 
	C567.929871,96.543198 556.457947,98.623909 547.672119,108.901230 
	C540.216003,117.623016 539.157776,128.197693 540.127136,139.036209 
	C542.346558,163.851593 569.809998,176.729385 590.450684,162.709564 
	C596.000488,158.940002 599.299622,153.707245 600.456238,146.608643 
	C594.803284,146.608643 589.816040,146.484909 584.842712,146.694199 
	C583.573120,146.747620 582.090210,147.594269 581.145874,148.523987 
	C576.539734,153.059143 571.367554,154.067520 565.732788,151.288010 
	C560.915771,148.911865 558.543640,143.364960 559.670898,136.795288 
	C572.774231,136.795288 585.917542,136.795288 599.969238,136.777924 
M88.047913,117.350639 
	C98.863098,117.354797 109.754005,116.555695 120.474304,117.566353 
	C133.887436,118.830887 145.109177,115.193306 155.423462,106.859146 
	C161.082611,102.286423 161.415359,98.666008 155.298965,94.582611 
	C138.983444,83.690117 122.650581,72.823540 106.307053,61.973103 
	C99.431419,57.408379 92.511620,52.910194 85.012459,47.988338 
	C85.012459,58.819603 84.932594,68.895088 85.125214,78.965363 
	C85.146523,80.079498 86.521507,81.456863 87.614059,82.213348 
	C93.627693,86.377266 99.770447,90.354027 105.825943,94.458374 
	C110.466461,97.603683 110.477547,99.443512 105.875237,102.501152 
	C100.059753,106.364777 94.145905,110.082886 88.400368,114.046249 
	C87.619461,114.584930 87.567589,116.180450 88.047913,117.350639 
M204.878067,75.672432 
	C200.427750,72.616096 195.977432,69.559753 190.894913,66.069237 
	C190.894913,99.901085 190.894913,132.738190 190.894913,165.662689 
	C206.455154,165.662689 221.833908,165.662689 237.086578,165.662689 
	C237.086578,158.907837 237.086578,152.478470 237.086578,145.562317 
	C228.403351,145.562317 219.990448,145.562317 211.115524,145.562317 
	C211.115524,143.456207 211.115524,141.838562 211.115524,140.220932 
	C211.115524,122.408501 210.913589,104.592316 211.243851,86.786011 
	C211.337677,81.727959 210.196594,78.155235 204.878067,75.672432 
M529.218628,83.218315 
	C525.946716,80.729141 522.751526,78.130333 519.385254,75.776100 
	C514.150513,72.115143 508.799469,68.620499 503.164124,64.831017 
	C503.164124,98.708618 503.164124,131.781586 503.164124,164.920044 
	C511.992523,164.920044 520.517517,164.920044 529.333984,164.920044 
	C529.333984,137.685165 529.333984,110.887314 529.218628,83.218315 
M637.560364,144.193451 
	C638.218750,149.984329 635.390259,153.066605 629.388000,151.818939 
	C624.496338,150.802109 619.890991,148.407684 614.907471,146.529419 
	C613.189941,150.340530 611.147400,154.512787 609.492310,158.833466 
	C609.139832,159.753784 609.819519,161.728806 610.662476,162.347488 
	C621.128906,170.029495 638.195374,170.028183 648.754028,162.518097 
	C656.563171,156.963654 657.770081,148.877930 656.876465,140.260269 
	C656.053406,132.322708 650.718140,128.080902 643.552917,125.781998 
	C641.345337,125.073723 639.041870,124.664192 636.834290,123.955833 
	C633.892029,123.011688 630.868408,121.792061 631.562439,117.899750 
	C632.279968,113.875854 635.791931,113.310188 638.942749,113.535370 
	C642.327271,113.777237 645.647278,114.920944 649.193359,115.715477 
	C651.140869,111.377235 653.102478,107.007545 655.148621,102.449554 
	C646.875977,98.365311 638.357788,97.419289 629.733459,99.495178 
	C618.290894,102.249413 612.598267,109.933807 612.609070,121.524597 
	C612.618958,132.153702 616.474915,136.382507 629.251099,139.756180 
	C630.054443,139.968338 630.967834,139.932190 631.675964,140.304520 
	C633.549988,141.289886 635.339355,142.436188 637.560364,144.193451 
M465.963104,148.938629 
	C469.417267,162.573853 480.307526,168.291504 495.972351,164.618210 
	C495.972351,144.447937 495.972351,124.256454 495.972351,103.647331 
	C492.456085,103.647331 489.319702,103.560677 486.189484,103.662796 
	C474.546906,104.042618 465.966248,112.862595 465.878479,124.572906 
	C465.819824,132.395905 465.886444,140.219849 465.963104,148.938629 
M49.002495,181.480576 
	C55.746315,177.052979 62.490135,172.625366 69.974533,167.711548 
	C67.663376,165.971497 66.307167,164.830505 64.836609,163.863358 
	C57.193138,158.836441 49.547394,153.811661 41.831947,148.896805 
	C40.528282,148.066345 38.880604,147.775940 37.391865,147.236023 
	C36.985920,148.771301 36.232018,150.306107 36.230015,151.841919 
	C36.216122,162.491943 36.337498,173.142441 36.476631,183.791992 
	C36.494694,185.174438 36.863197,186.552292 37.231346,189.016388 
	C41.509640,186.292557 44.960197,184.095734 49.002495,181.480576 
z"/>
<path fill="#202020" opacity="1.000000" stroke="none" 
	d="
M36.858925,26.174513 
	C37.373768,23.554224 37.888611,21.409405 38.403450,19.264584 
	C40.651749,19.935919 43.212307,20.128798 45.096298,21.358351 
	C55.259102,27.990921 65.171738,35.007824 75.357857,41.603039 
	C78.356987,43.544888 79.525948,45.571632 79.496857,49.191616 
	C79.317558,71.502808 79.406891,93.816162 79.406891,116.128799 
	C79.406891,117.934021 79.406891,119.739250 79.406891,122.043617 
	C104.314270,122.043617 128.854431,122.043617 153.950912,122.043617 
	C153.950912,133.122498 154.354691,143.729355 153.791092,154.284576 
	C153.480530,160.100830 147.280731,164.943329 141.064774,164.933380 
	C120.428551,164.900345 99.792038,164.645309 79.158234,164.313477 
	C77.501724,164.286835 75.722450,163.246338 74.241951,162.299164 
	C63.041183,155.133270 51.964466,147.771378 40.697701,140.712189 
	C37.819164,138.908646 36.764332,136.967636 36.777069,133.550262 
	C36.909878,97.917229 36.858929,62.283512 36.858925,26.174513 
z"/>
<path fill="#202020" opacity="1.000000" stroke="none" 
	d="
M411.081390,179.000061 
	C411.081390,185.596481 411.081390,191.693222 411.081390,198.672028 
	C404.709503,194.907410 399.003296,191.642929 393.447906,188.139343 
	C392.609467,187.610550 392.074249,185.968033 392.071808,184.839233 
	C392.011475,157.200424 392.041138,129.561447 392.072571,101.922508 
	C392.072906,101.624779 392.310425,101.327316 392.511322,100.855728 
	C398.511871,100.855728 404.577057,100.855728 410.921997,100.855728 
	C410.921997,103.192886 410.921997,105.307526 410.921997,107.925232 
	C411.854309,107.512589 412.615601,107.430092 412.841034,107.038818 
	C419.416656,95.627365 438.761383,95.721153 448.225159,107.269508 
	C458.945618,120.351364 460.448883,140.350662 451.797638,154.923660 
	C442.806458,170.069351 423.207489,172.960587 411.081390,159.108475 
	C411.081390,166.123840 411.081390,172.312119 411.081390,179.000061 
M415.028046,145.511948 
	C417.697693,146.659454 420.297607,148.569580 423.049194,148.821243 
	C434.414703,149.860703 441.316101,137.425507 436.096497,125.680717 
	C433.974670,120.906342 430.507629,118.004921 425.067383,117.799026 
	C419.597107,117.592003 415.278503,119.547821 412.764038,124.526497 
	C409.169342,131.643997 409.505219,138.535324 415.028046,145.511948 
z"/>
<path fill="#202020" opacity="1.000000" stroke="none" 
	d="
M730.747742,157.246918 
	C733.118469,160.057373 735.251648,162.603226 738.068237,165.964828 
	C728.990234,165.964828 720.630554,166.095444 712.284058,165.822388 
	C711.048279,165.781967 709.709900,163.970932 708.699402,162.747482 
	C702.138733,154.803955 695.655762,146.796326 688.437012,137.938080 
	C688.437012,147.754532 688.437012,156.563293 688.437012,165.676498 
	C681.854126,165.676498 675.767212,165.676498 669.344849,165.676498 
	C669.344849,132.768265 669.344849,99.708298 669.344849,66.070511 
	C675.271362,69.843056 681.162720,73.414543 686.799866,77.350121 
	C687.786926,78.039238 688.054504,80.255585 688.064331,81.770424 
	C688.155884,95.902390 688.118530,110.035187 688.118530,125.667862 
	C691.923645,121.356216 695.439148,118.309891 697.787781,114.537102 
	C705.062744,102.850792 715.170044,98.169518 728.700378,100.578041 
	C730.630554,100.921631 732.674561,100.625618 736.111145,100.625618 
	C726.417542,111.101700 717.499390,120.739731 708.269043,130.715134 
	C715.721375,139.516464 723.115723,148.249390 730.747742,157.246918 
z"/>
<path fill="#212121" opacity="1.000000" stroke="none" 
	d="
M297.365692,106.594162 
	C311.348114,119.187660 312.700684,143.962204 300.387207,157.345551 
	C287.708344,171.126007 264.983032,172.092773 251.015228,158.879974 
	C239.531235,148.016724 238.716232,134.157745 243.172806,120.132271 
	C247.285492,107.189034 257.382080,100.650284 270.632507,98.793304 
	C280.577942,97.399506 289.322845,100.175880 297.365692,106.594162 
M288.198456,130.844894 
	C286.676239,121.334213 281.255737,116.838074 272.665222,117.960526 
	C265.464752,118.901352 260.227509,126.855156 261.240662,135.311005 
	C262.342285,144.505081 268.148895,149.709457 276.428070,148.923218 
	C284.270508,148.178452 288.502075,142.021484 288.198456,130.844894 
z"/>
<path fill="#212121" opacity="1.000000" stroke="none" 
	d="
M340.636169,99.230652 
	C350.743469,97.505783 359.886139,98.674736 368.183136,104.366257 
	C381.323273,113.380051 383.878510,126.523155 381.792511,140.976181 
	C379.837311,154.522888 371.300629,163.146240 358.432526,166.759903 
	C344.475464,170.679382 331.817627,167.331390 322.175751,156.289566 
	C305.762268,137.492905 315.646149,106.831627 340.636169,99.230652 
M349.391663,117.820633 
	C340.675415,118.257736 335.635468,123.157295 335.014496,131.797272 
	C334.391693,140.462967 338.687378,147.311127 345.657318,148.763870 
	C353.363831,150.370148 360.199066,145.681778 361.835327,137.667145 
	C363.867645,127.712738 359.019714,119.439285 349.391663,117.820633 
z"/>
<path fill="#222222" opacity="1.000000" stroke="none" 
	d="
M599.515015,136.786606 
	C585.917542,136.795288 572.774231,136.795288 559.670898,136.795288 
	C558.543640,143.364960 560.915771,148.911865 565.732788,151.288010 
	C571.367554,154.067520 576.539734,153.059143 581.145874,148.523987 
	C582.090210,147.594269 583.573120,146.747620 584.842712,146.694199 
	C589.816040,146.484909 594.803284,146.608643 600.456238,146.608643 
	C599.299622,153.707245 596.000488,158.940002 590.450684,162.709564 
	C569.809998,176.729385 542.346558,163.851593 540.127136,139.036209 
	C539.157776,128.197693 540.216003,117.623016 547.672119,108.901230 
	C556.457947,98.623909 567.929871,96.543198 580.354553,99.817970 
	C593.482605,103.278114 598.780457,113.558220 600.996094,125.940735 
	C601.405396,128.228516 601.791199,130.578079 601.690491,132.877350 
	C601.632568,134.200134 600.576172,135.479187 599.515015,136.786606 
M562.817444,116.256889 
	C561.537720,118.612099 560.258057,120.967308 558.776855,123.693451 
	C567.766174,123.693451 575.777344,123.693451 583.860657,123.693451 
	C581.149048,112.883217 572.495728,109.644386 562.817444,116.256889 
z"/>
<path fill="#2977EA" opacity="1.000000" stroke="none" 
	d="
M87.613037,117.318634 
	C87.567589,116.180450 87.619461,114.584930 88.400368,114.046249 
	C94.145905,110.082886 100.059753,106.364777 105.875237,102.501152 
	C110.477547,99.443512 110.466461,97.603683 105.825943,94.458374 
	C99.770447,90.354027 93.627693,86.377266 87.614059,82.213348 
	C86.521507,81.456863 85.146523,80.079498 85.125214,78.965363 
	C84.932594,68.895088 85.012459,58.819603 85.012459,47.988338 
	C92.511620,52.910194 99.431419,57.408379 106.307053,61.973103 
	C122.650581,72.823540 138.983444,83.690117 155.298965,94.582611 
	C161.415359,98.666008 161.082611,102.286423 155.423462,106.859146 
	C145.109177,115.193306 133.887436,118.830887 120.474304,117.566353 
	C109.754005,116.555695 98.863098,117.354797 87.613037,117.318634 
z"/>
<path fill="#1F1F1F" opacity="1.000000" stroke="none" 
	d="
M205.191101,75.863739 
	C210.196594,78.155235 211.337677,81.727959 211.243851,86.786011 
	C210.913589,104.592316 211.115524,122.408501 211.115524,140.220932 
	C211.115524,141.838562 211.115524,143.456207 211.115524,145.562317 
	C219.990448,145.562317 228.403351,145.562317 237.086578,145.562317 
	C237.086578,152.478470 237.086578,158.907837 237.086578,165.662689 
	C221.833908,165.662689 206.455154,165.662689 190.894913,165.662689 
	C190.894913,132.738190 190.894913,99.901085 190.894913,66.069237 
	C195.977432,69.559753 200.427750,72.616096 205.191101,75.863739 
z"/>
<path fill="#2776EA" opacity="1.000000" stroke="none" 
	d="
M529.276306,83.653893 
	C529.333984,110.887314 529.333984,137.685165 529.333984,164.920044 
	C520.517517,164.920044 511.992523,164.920044 503.164124,164.920044 
	C503.164124,131.781586 503.164124,98.708618 503.164124,64.831017 
	C508.799469,68.620499 514.150513,72.115143 519.385254,75.776100 
	C522.751526,78.130333 525.946716,80.729141 529.276306,83.653893 
z"/>
<path fill="#222222" opacity="1.000000" stroke="none" 
	d="
M637.361389,143.855927 
	C635.339355,142.436188 633.549988,141.289886 631.675964,140.304520 
	C630.967834,139.932190 630.054443,139.968338 629.251099,139.756180 
	C616.474915,136.382507 612.618958,132.153702 612.609070,121.524597 
	C612.598267,109.933807 618.290894,102.249413 629.733459,99.495178 
	C638.357788,97.419289 646.875977,98.365311 655.148621,102.449554 
	C653.102478,107.007545 651.140869,111.377235 649.193359,115.715477 
	C645.647278,114.920944 642.327271,113.777237 638.942749,113.535370 
	C635.791931,113.310188 632.279968,113.875854 631.562439,117.899750 
	C630.868408,121.792061 633.892029,123.011688 636.834290,123.955833 
	C639.041870,124.664192 641.345337,125.073723 643.552917,125.781998 
	C650.718140,128.080902 656.053406,132.322708 656.876465,140.260269 
	C657.770081,148.877930 656.563171,156.963654 648.754028,162.518097 
	C638.195374,170.028183 621.128906,170.029495 610.662476,162.347488 
	C609.819519,161.728806 609.139832,159.753784 609.492310,158.833466 
	C611.147400,154.512787 613.189941,150.340530 614.907471,146.529419 
	C619.890991,148.407684 624.496338,150.802109 629.388000,151.818939 
	C635.390259,153.066605 638.218750,149.984329 637.361389,143.855927 
z"/>
<path fill="#2876EA" opacity="1.000000" stroke="none" 
	d="
M465.930054,148.490997 
	C465.886444,140.219849 465.819824,132.395905 465.878479,124.572906 
	C465.966248,112.862595 474.546906,104.042618 486.189484,103.662796 
	C489.319702,103.560677 492.456085,103.647331 495.972351,103.647331 
	C495.972351,124.256454 495.972351,144.447937 495.972351,164.618210 
	C480.307526,168.291504 469.417267,162.573853 465.930054,148.490997 
z"/>
<path fill="#2A78EA" opacity="1.000000" stroke="none" 
	d="
M48.706623,181.689728 
	C44.960197,184.095734 41.509640,186.292557 37.231346,189.016388 
	C36.863197,186.552292 36.494694,185.174438 36.476631,183.791992 
	C36.337498,173.142441 36.216122,162.491943 36.230015,151.841919 
	C36.232018,150.306107 36.985920,148.771301 37.391869,147.236023 
	C38.880604,147.775940 40.528282,148.066345 41.831947,148.896805 
	C49.547394,153.811661 57.193138,158.836441 64.836609,163.863358 
	C66.307167,164.830505 67.663376,165.971497 69.974533,167.711548 
	C62.490135,172.625366 55.746315,177.052979 48.706623,181.689728 
z"/>
<path fill="#F5F5F2" opacity="1.000000" stroke="none" 
	d="
M414.762451,145.245148 
	C409.505219,138.535324 409.169342,131.643997 412.764038,124.526497 
	C415.278503,119.547821 419.597107,117.592003 425.067383,117.799026 
	C430.507629,118.004921 433.974670,120.906342 436.096497,125.680717 
	C441.316101,137.425507 434.414703,149.860703 423.049194,148.821243 
	C420.297607,148.569580 417.697693,146.659454 414.762451,145.245148 
z"/>
<path fill="#F6F5F2" opacity="1.000000" stroke="none" 
	d="
M288.218750,131.291565 
	C288.502075,142.021484 284.270508,148.178452 276.428070,148.923218 
	C268.148895,149.709457 262.342285,144.505081 261.240662,135.311005 
	C260.227509,126.855156 265.464752,118.901352 272.665222,117.960526 
	C281.255737,116.838074 286.676239,121.334213 288.218750,131.291565 
z"/>
<path fill="#F6F5F3" opacity="1.000000" stroke="none" 
	d="
M349.816467,117.850723 
	C359.019714,119.439285 363.867645,127.712738 361.835327,137.667145 
	C360.199066,145.681778 353.363831,150.370148 345.657318,148.763870 
	C338.687378,147.311127 334.391693,140.462967 335.014496,131.797272 
	C335.635468,123.157295 340.675415,118.257736 349.816467,117.850723 
z"/>
<path fill="#F6F5F3" opacity="1.000000" stroke="none" 
	d="
M563.088440,115.992310 
	C572.495728,109.644386 581.149048,112.883217 583.860657,123.693451 
	C575.777344,123.693451 567.766174,123.693451 558.776855,123.693451 
	C560.258057,120.967308 561.537720,118.612099 563.088440,115.992310 
z"/>
</svg>